<svg width="14" height="14" viewBox="0 0 14 14" fill="none" xmlns="http://www.w3.org/2000/svg">
<g id="check">
<path id="Vector" fill-rule="evenodd" clip-rule="evenodd" d="M11.6937 3.70495C11.825 3.83622 11.8987 4.01424 11.8987 4.19985C11.8987 4.38547 11.825 4.56348 11.6937 4.69475L6.09372 10.2948C5.96245 10.426 5.78444 10.4997 5.59882 10.4997C5.41321 10.4997 5.23519 10.426 5.10392 10.2948L2.30392 7.49475C2.17641 7.36273 2.10585 7.18591 2.10745 7.00237C2.10904 6.81883 2.18266 6.64326 2.31245 6.51348C2.44223 6.38369 2.6178 6.31007 2.80134 6.30848C2.98488 6.30688 3.1617 6.37744 3.29372 6.50495L5.59882 8.81005L10.7039 3.70495C10.8352 3.57372 11.0132 3.5 11.1988 3.5C11.3844 3.5 11.5625 3.57372 11.6937 3.70495Z" fill="currentColor"/>
</g>
</svg>
